<svg width="25" height="25" viewBox="0 0 25 25" fill="none" xmlns="http://www.w3.org/2000/svg">
<rect x="-0.35" y="0.35" width="24.3" height="24.3" rx="12.15" transform="matrix(-1 0 0 1 24.3 0)" stroke="white" stroke-width="0.7"/>
<g clip-path="url(#clip0)">
<path fill-rule="evenodd" clip-rule="evenodd" d="M15.4012 16.479C15.4012 16.479 15.1802 17.044 14.5732 16.7725L10.9307 13.914L9.60616 13.259L7.37666 12.49C7.37666 12.49 7.03466 12.366 7.00166 12.095C6.96816 11.8235 7.38766 11.6765 7.38766 11.6765L16.2512 8.11849C16.2512 8.11849 16.9797 7.79099 16.9797 8.33349L15.4012 16.4785V16.479Z" fill="#FFFFFE"/>
<path fill-rule="evenodd" clip-rule="evenodd" d="M10.6512 16.3877C10.6512 16.3877 10.5447 16.3777 10.4122 15.9477C10.2797 15.5187 9.60623 13.2592 9.60623 13.2592L14.9597 9.77918C14.9597 9.77918 15.2687 9.58718 15.2577 9.77918C15.2577 9.77918 15.3127 9.81318 15.1477 9.97168C14.9817 10.1297 10.9422 13.8467 10.9422 13.8467" fill="#E6E6E6"/>
<path fill-rule="evenodd" clip-rule="evenodd" d="M12.3275 15.0101L10.8865 16.3551C10.8865 16.3551 10.774 16.4421 10.651 16.3876L10.9265 13.8901" fill="#CDCDCD"/>
</g>
<defs>
<clipPath id="clip0">
<rect width="10" height="9" fill="white" transform="translate(6.99966 8)"/>
</clipPath>
</defs>
</svg>