<svg width="25" height="25" viewBox="0 0 25 25" fill="none" xmlns="http://www.w3.org/2000/svg">
<path d="M12.5 25C19.4036 25 25 19.4036 25 12.5C25 5.59644 19.4036 0 12.5 0C5.59644 0 0 5.59644 0 12.5C0 19.4036 5.59644 25 12.5 25Z" fill="#FF0000"/>
<g clip-path="url(#clip0)">
<path d="M19.5504 8.96979C19.3808 8.3398 18.8841 7.84322 18.2543 7.67358C17.1035 7.35864 12.5003 7.35864 12.5003 7.35864C12.5003 7.35864 7.89717 7.35864 6.74637 7.66157C6.12862 7.8311 5.61981 8.33991 5.45028 8.96979C5.14746 10.1205 5.14746 12.5069 5.14746 12.5069C5.14746 12.5069 5.14746 14.9053 5.45028 16.044C5.61992 16.6739 6.1165 17.1706 6.74649 17.3402C7.90929 17.6551 12.5004 17.6551 12.5004 17.6551C12.5004 17.6551 17.1035 17.6551 18.2543 17.3522C18.8842 17.1827 19.3808 16.686 19.5505 16.0561C19.8533 14.9053 19.8533 12.519 19.8533 12.519C19.8533 12.519 19.8654 10.1205 19.5504 8.96979Z" fill="white"/>
<path d="M11.0352 14.7116L14.863 12.5069L11.0352 10.3022V14.7116Z" fill="#FF0000"/>
</g>
<defs>
<clipPath id="clip0">
<rect width="14.7059" height="14.7059" fill="white" transform="translate(5.14746 5.14697)"/>
</clipPath>
</defs>
</svg>
