<svg width="155" height="20" viewBox="0 0 155 20" fill="none" xmlns="http://www.w3.org/2000/svg">
<path d="M30.68 5.72C30.48 5.72 30.305 5.65 30.155 5.51C30.005 5.36 29.93 5.18 29.93 4.97C29.93 4.76 30.005 4.58 30.155 4.43C30.305 4.28 30.48 4.205 30.68 4.205C30.89 4.205 31.07 4.28 31.22 4.43C31.37 4.58 31.445 4.76 31.445 4.97C31.445 5.18 31.37 5.36 31.22 5.51C31.07 5.65 30.89 5.72 30.68 5.72ZM31.25 14H30.125V6.755H31.25V14ZM39.5091 14H38.3841V9.26C38.3841 8.65 38.2441 8.22 37.9641 7.97C37.6841 7.71 37.2841 7.58 36.7641 7.58C36.3441 7.58 35.9341 7.69 35.5341 7.91C35.1441 8.13 34.8391 8.395 34.6191 8.705V14H33.4941V6.755H34.6191V7.805C34.8991 7.475 35.2741 7.19 35.7441 6.95C36.2141 6.7 36.6991 6.575 37.1991 6.575C38.7391 6.575 39.5091 7.355 39.5091 8.915V14ZM43.1959 14H42.0709V7.745H40.8709V6.755H42.0709V6.2C42.0709 5.46 42.2559 4.885 42.6259 4.475C43.0059 4.055 43.5209 3.845 44.1709 3.845C44.7909 3.845 45.3009 4.03 45.7009 4.4L45.2359 5.135C44.9659 4.895 44.6659 4.775 44.3359 4.775C43.9659 4.775 43.6809 4.9 43.4809 5.15C43.2909 5.39 43.1959 5.74 43.1959 6.2V6.755H44.6659V7.745H43.1959V14ZM51.7639 13.085C51.1139 13.815 50.2489 14.18 49.1689 14.18C48.0889 14.18 47.2189 13.815 46.5589 13.085C45.9089 12.355 45.5839 11.45 45.5839 10.37C45.5839 9.29 45.9089 8.39 46.5589 7.67C47.2189 6.94 48.0889 6.575 49.1689 6.575C50.2489 6.575 51.1139 6.94 51.7639 7.67C52.4239 8.39 52.7539 9.29 52.7539 10.37C52.7539 11.45 52.4239 12.355 51.7639 13.085ZM47.3989 12.365C47.8389 12.905 48.4289 13.175 49.1689 13.175C49.9089 13.175 50.4939 12.905 50.9239 12.365C51.3539 11.815 51.5689 11.15 51.5689 10.37C51.5689 9.59 51.3539 8.93 50.9239 8.39C50.4939 7.85 49.9089 7.58 49.1689 7.58C48.4289 7.58 47.8389 7.855 47.3989 8.405C46.9689 8.945 46.7539 9.6 46.7539 10.37C46.7539 11.15 46.9689 11.815 47.3989 12.365ZM58.7429 15.05C57.3829 15.05 56.2479 14.6 55.3379 13.7C54.4379 12.79 53.9879 11.67 53.9879 10.34C53.9879 8.74 54.5829 7.355 55.7729 6.185C56.9729 5.015 58.3629 4.43 59.9429 4.43C61.3329 4.43 62.4679 4.89 63.3479 5.81C64.2279 6.72 64.6679 7.845 64.6679 9.185C64.6679 10.295 64.4079 11.165 63.8879 11.795C63.3679 12.415 62.7629 12.725 62.0729 12.725C61.6729 12.725 61.3479 12.61 61.0979 12.38C60.8579 12.14 60.7279 11.85 60.7079 11.51L60.6929 11.42C60.4229 11.8 60.0729 12.115 59.6429 12.365C59.2229 12.605 58.7829 12.725 58.3229 12.725C57.6329 12.725 57.0779 12.5 56.6579 12.05C56.2379 11.6 56.0279 11.01 56.0279 10.28C56.0279 9.26 56.3879 8.38 57.1079 7.64C57.8279 6.89 58.6429 6.515 59.5529 6.515C60.0129 6.515 60.4079 6.625 60.7379 6.845C61.0779 7.065 61.3229 7.345 61.4729 7.685L61.6679 6.755H62.6879L61.8329 10.82C61.8129 10.94 61.8029 11.045 61.8029 11.135C61.8029 11.385 61.8679 11.58 61.9979 11.72C62.1379 11.85 62.3079 11.915 62.5079 11.915C62.8879 11.915 63.2529 11.69 63.6029 11.24C63.9529 10.79 64.1279 10.105 64.1279 9.185C64.1279 7.945 63.7329 6.93 62.9429 6.14C62.1629 5.34 61.1429 4.94 59.8829 4.94C58.4429 4.94 57.1829 5.485 56.1029 6.575C55.0329 7.655 54.4979 8.9 54.4979 10.31C54.4979 11.52 54.9029 12.53 55.7129 13.34C56.5329 14.15 57.5629 14.555 58.8029 14.555C59.7729 14.555 60.7029 14.275 61.5929 13.715L61.8629 14.105C60.8829 14.735 59.8429 15.05 58.7429 15.05ZM58.6229 11.885C59.4929 11.885 60.2379 11.435 60.8579 10.535L61.2929 8.465C61.1929 8.175 61.0079 7.92 60.7379 7.7C60.4779 7.47 60.1479 7.355 59.7479 7.355C59.0179 7.355 58.3929 7.65 57.8729 8.24C57.3529 8.82 57.0929 9.48 57.0929 10.22C57.0929 10.71 57.2279 11.11 57.4979 11.42C57.7779 11.73 58.1529 11.885 58.6229 11.885ZM72.3509 14H71.2259V9.26C71.2259 8.65 71.0859 8.22 70.8059 7.97C70.5259 7.71 70.1259 7.58 69.6059 7.58C69.1859 7.58 68.7759 7.69 68.3759 7.91C67.9859 8.13 67.6809 8.395 67.4609 8.705V14H66.3359V6.755H67.4609V7.805C67.7409 7.475 68.1159 7.19 68.5859 6.95C69.0559 6.7 69.5409 6.575 70.0409 6.575C71.5809 6.575 72.3509 7.355 72.3509 8.915V14ZM77.8677 14.18C76.7877 14.18 75.9027 13.83 75.2127 13.13C74.5227 12.42 74.1777 11.5 74.1777 10.37C74.1777 9.31 74.5177 8.415 75.1977 7.685C75.8777 6.945 76.7277 6.575 77.7477 6.575C78.8177 6.575 79.6627 6.945 80.2827 7.685C80.9127 8.415 81.2277 9.34 81.2277 10.46V10.745H75.3627C75.4127 11.455 75.6727 12.05 76.1427 12.53C76.6127 13.01 77.2227 13.25 77.9727 13.25C78.8727 13.25 79.6177 12.945 80.2077 12.335L80.7477 13.07C80.0077 13.81 79.0477 14.18 77.8677 14.18ZM80.1177 9.92C80.1077 9.3 79.8977 8.745 79.4877 8.255C79.0777 7.755 78.4927 7.505 77.7327 7.505C77.0127 7.505 76.4427 7.75 76.0227 8.24C75.6127 8.73 75.3927 9.29 75.3627 9.92H80.1177ZM85.3448 14.18C84.1148 14.18 83.1398 13.8 82.4198 13.04L83.0048 12.23C83.2548 12.52 83.5948 12.765 84.0248 12.965C84.4648 13.165 84.9198 13.265 85.3898 13.265C85.9298 13.265 86.3498 13.15 86.6498 12.92C86.9498 12.69 87.0998 12.39 87.0998 12.02C87.0998 11.7 86.9448 11.45 86.6348 11.27C86.3248 11.08 85.9498 10.94 85.5098 10.85C85.0798 10.75 84.6448 10.64 84.2048 10.52C83.7648 10.39 83.3898 10.175 83.0798 9.875C82.7698 9.565 82.6148 9.16 82.6148 8.66C82.6148 8.07 82.8548 7.575 83.3348 7.175C83.8248 6.775 84.4848 6.575 85.3148 6.575C86.4048 6.575 87.2998 6.925 87.9998 7.625L87.4748 8.405C86.9648 7.795 86.2448 7.49 85.3148 7.49C84.8248 7.49 84.4348 7.6 84.1448 7.82C83.8548 8.03 83.7098 8.3 83.7098 8.63C83.7098 8.92 83.8648 9.15 84.1748 9.32C84.4848 9.48 84.8548 9.61 85.2848 9.71C85.7248 9.8 86.1648 9.91 86.6048 10.04C87.0448 10.17 87.4198 10.4 87.7298 10.73C88.0398 11.05 88.1948 11.47 88.1948 11.99C88.1948 12.63 87.9448 13.155 87.4448 13.565C86.9448 13.975 86.2448 14.18 85.3448 14.18ZM91.8525 14.18C91.3225 14.18 90.9225 14.035 90.6525 13.745C90.3825 13.455 90.2475 13.035 90.2475 12.485V7.745H89.0475V6.755H90.2475V4.775H91.3725V6.755H92.8425V7.745H91.3725V12.245C91.3725 12.525 91.4325 12.75 91.5525 12.92C91.6825 13.09 91.8675 13.175 92.1075 13.175C92.4375 13.175 92.6925 13.075 92.8725 12.875L93.2025 13.715C92.8725 14.025 92.4225 14.18 91.8525 14.18ZM100.087 14H98.9616V13.175C98.3516 13.845 97.5516 14.18 96.5616 14.18C95.8916 14.18 95.3016 13.965 94.7916 13.535C94.2816 13.105 94.0266 12.52 94.0266 11.78C94.0266 11.02 94.2766 10.435 94.7766 10.025C95.2866 9.605 95.8816 9.395 96.5616 9.395C97.5916 9.395 98.3916 9.725 98.9616 10.385V9.08C98.9616 8.6 98.7916 8.225 98.4516 7.955C98.1116 7.685 97.6716 7.55 97.1316 7.55C96.2816 7.55 95.5416 7.885 94.9116 8.555L94.3866 7.775C95.1566 6.975 96.1216 6.575 97.2816 6.575C98.1116 6.575 98.7866 6.775 99.3066 7.175C99.8266 7.575 100.087 8.19 100.087 9.02V14ZM96.9666 13.37C97.8666 13.37 98.5316 13.07 98.9616 12.47V11.105C98.5316 10.505 97.8666 10.205 96.9666 10.205C96.4466 10.205 96.0166 10.355 95.6766 10.655C95.3466 10.945 95.1816 11.325 95.1816 11.795C95.1816 12.255 95.3466 12.635 95.6766 12.935C96.0166 13.225 96.4466 13.37 96.9666 13.37ZM108.357 14H107.232V9.26C107.232 8.65 107.092 8.22 106.812 7.97C106.532 7.71 106.132 7.58 105.612 7.58C105.192 7.58 104.782 7.69 104.382 7.91C103.992 8.13 103.687 8.395 103.467 8.705V14H102.342V6.755H103.467V7.805C103.747 7.475 104.122 7.19 104.592 6.95C105.062 6.7 105.547 6.575 106.047 6.575C107.587 6.575 108.357 7.355 108.357 8.915V14ZM116.979 14H115.854V12.92C115.234 13.76 114.419 14.18 113.409 14.18C112.449 14.18 111.669 13.84 111.069 13.16C110.479 12.47 110.184 11.545 110.184 10.385C110.184 9.235 110.479 8.315 111.069 7.625C111.669 6.925 112.449 6.575 113.409 6.575C114.409 6.575 115.224 7 115.854 7.85V3.995H116.979V14ZM113.679 13.175C114.119 13.175 114.539 13.065 114.939 12.845C115.339 12.625 115.644 12.355 115.854 12.035V8.75C115.644 8.42 115.334 8.145 114.924 7.925C114.524 7.695 114.109 7.58 113.679 7.58C112.969 7.58 112.404 7.845 111.984 8.375C111.564 8.895 111.354 9.565 111.354 10.385C111.354 11.205 111.564 11.875 111.984 12.395C112.404 12.915 112.969 13.175 113.679 13.175ZM124.886 14H123.761V13.175C123.151 13.845 122.351 14.18 121.361 14.18C120.691 14.18 120.101 13.965 119.591 13.535C119.081 13.105 118.826 12.52 118.826 11.78C118.826 11.02 119.076 10.435 119.576 10.025C120.086 9.605 120.681 9.395 121.361 9.395C122.391 9.395 123.191 9.725 123.761 10.385V9.08C123.761 8.6 123.591 8.225 123.251 7.955C122.911 7.685 122.471 7.55 121.931 7.55C121.081 7.55 120.341 7.885 119.711 8.555L119.186 7.775C119.956 6.975 120.921 6.575 122.081 6.575C122.911 6.575 123.586 6.775 124.106 7.175C124.626 7.575 124.886 8.19 124.886 9.02V14ZM121.766 13.37C122.666 13.37 123.331 13.07 123.761 12.47V11.105C123.331 10.505 122.666 10.205 121.766 10.205C121.246 10.205 120.816 10.355 120.476 10.655C120.146 10.945 119.981 11.325 119.981 11.795C119.981 12.255 120.146 12.635 120.476 12.935C120.816 13.225 121.246 13.37 121.766 13.37ZM128.267 14H127.142V6.755H128.267V7.925C128.937 7.045 129.742 6.605 130.682 6.605V7.76C130.542 7.73 130.392 7.715 130.232 7.715C129.892 7.715 129.522 7.835 129.122 8.075C128.722 8.315 128.437 8.58 128.267 8.87V14ZM133.923 14.18C133.393 14.18 132.993 14.035 132.723 13.745C132.453 13.455 132.318 13.035 132.318 12.485V7.745H131.118V6.755H132.318V4.775H133.443V6.755H134.913V7.745H133.443V12.245C133.443 12.525 133.503 12.75 133.623 12.92C133.753 13.09 133.938 13.175 134.178 13.175C134.508 13.175 134.763 13.075 134.943 12.875L135.273 13.715C134.943 14.025 134.493 14.18 133.923 14.18ZM137.687 13.91C137.527 14.07 137.332 14.15 137.102 14.15C136.872 14.15 136.677 14.07 136.517 13.91C136.357 13.75 136.277 13.555 136.277 13.325C136.277 13.095 136.357 12.9 136.517 12.74C136.677 12.58 136.872 12.5 137.102 12.5C137.332 12.5 137.527 12.58 137.687 12.74C137.847 12.9 137.927 13.095 137.927 13.325C137.927 13.555 137.847 13.75 137.687 13.91ZM141.084 12.035C141.284 12.355 141.584 12.625 141.984 12.845C142.394 13.065 142.814 13.175 143.244 13.175C143.964 13.175 144.534 12.915 144.954 12.395C145.374 11.875 145.584 11.205 145.584 10.385C145.584 9.565 145.374 8.895 144.954 8.375C144.534 7.845 143.964 7.58 143.244 7.58C142.814 7.58 142.394 7.695 141.984 7.925C141.584 8.145 141.284 8.42 141.084 8.75V12.035ZM141.084 14H139.959V3.995H141.084V7.85C141.714 7 142.529 6.575 143.529 6.575C144.479 6.575 145.254 6.925 145.854 7.625C146.454 8.315 146.754 9.235 146.754 10.385C146.754 11.545 146.454 12.47 145.854 13.16C145.264 13.84 144.489 14.18 143.529 14.18C142.519 14.18 141.704 13.76 141.084 12.92V14ZM148.182 16.835L148.362 15.815C148.542 15.895 148.747 15.935 148.977 15.935C149.237 15.935 149.452 15.88 149.622 15.77C149.792 15.66 149.937 15.46 150.057 15.17L150.537 14.075L147.507 6.755H148.722L151.137 12.695L153.537 6.755H154.767L151.137 15.47C150.737 16.43 150.027 16.92 149.007 16.94C148.707 16.94 148.432 16.905 148.182 16.835Z" fill="white"/>
<path d="M1.77778 2C1.39027 2 1.03451 2.12444 0.743067 2.33333L0.749956 2.34026L8.52773 9.64582C8.69969 9.80726 9.07802 9.80726 9.24996 9.64582L17.0277 2.34026L17.0346 2.33333C16.7432 2.12444 16.3874 2 15.9999 2H1.77769H1.77778ZM0.1736 3.01389C0.0636888 3.24536 0 3.50358 0 3.77778V12.2222C0 12.5569 0.0973777 12.8652 0.256933 13.1319L5.75693 8.26389L0.1736 3.01389ZM17.6042 3.01389L12.0208 8.26389L17.5208 13.1319C17.6804 12.8652 17.7778 12.5569 17.7778 12.2222V3.77778C17.7778 3.50358 17.7141 3.24536 17.6042 3.01389ZM6.40973 8.875L0.888889 13.7569C1.15089 13.9087 1.45204 14 1.77778 14H16C16.3257 14 16.6269 13.9087 16.8889 13.7569L11.368 8.875L9.86111 10.2917C9.31722 10.8024 8.46053 10.8023 7.91667 10.2917L6.40973 8.875Z" fill="white"/>
</svg>
