<svg width="24" height="27" viewBox="0 0 24 27" fill="none" xmlns="http://www.w3.org/2000/svg">
<path d="M1.15453 10.5048C1.35813 10.0489 1.89278 9.84443 2.34869 10.048C2.80459 10.2516 3.00908 10.7863 2.80548 11.2422C2.80327 11.2472 2.80101 11.2521 2.79871 11.257C0.506705 16.2537 2.6993 22.1624 7.69601 24.4544C12.6927 26.7464 18.6013 24.5538 20.8933 19.5571C23.1853 14.5604 20.9927 8.65173 15.996 6.35975C12.9232 4.95023 9.34493 5.19674 6.49442 7.01437L10.0176 9.33984C10.4344 9.61474 10.5494 10.1754 10.2746 10.5923C10.2745 10.5924 10.2744 10.5925 10.2743 10.5926C9.99944 11.0094 9.43874 11.1245 9.02189 10.8496C9.02175 10.8495 9.02166 10.8495 9.02156 10.8494L4.24999 7.699C3.92508 7.4846 3.7739 7.08626 3.87471 6.71024L5.27864 1.4707C5.40787 0.988392 5.9036 0.702182 6.38591 0.831415C6.86821 0.960648 7.15442 1.45638 7.02519 1.93868L6.17044 5.12866C11.8138 2.0563 18.8793 4.1405 21.9516 9.78383C25.024 15.4272 22.9399 22.4927 17.2965 25.5651C11.6531 28.6375 4.58761 26.5533 1.5152 20.9099C-0.236738 17.6918 -0.370395 13.8365 1.15453 10.5048Z" fill="white"/>
</svg>
