<svg width="50" height="50" viewBox="0 0 50 50" fill="none" xmlns="http://www.w3.org/2000/svg">
<path d="M25.0725 44.9679C21.2438 44.9819 17.4915 43.8967 14.2615 41.8411C11.0314 39.7854 8.45929 36.8458 6.8507 33.3714C5.24212 29.897 4.66467 26.0338 5.18697 22.2409C5.70926 18.448 7.30934 14.8847 9.79712 11.9744C12.6101 8.71464 16.3948 6.44339 20.5947 5.49456C24.7945 4.54573 29.188 4.96939 33.1292 6.70324C33.2478 6.75119 33.3556 6.82254 33.446 6.91304C33.5364 7.00354 33.6077 7.11133 33.6555 7.22999C33.7034 7.34864 33.7268 7.47572 33.7245 7.60363C33.7222 7.73155 33.6941 7.85768 33.6419 7.9745C33.5897 8.09132 33.5146 8.19643 33.4209 8.28356C33.3272 8.37068 33.2169 8.43804 33.0966 8.4816C32.9763 8.52516 32.8485 8.54404 32.7207 8.53711C32.593 8.53017 32.4679 8.49757 32.3531 8.44124C28.7896 6.85801 24.8101 6.46826 21.0072 7.33005C17.2043 8.19184 13.7816 10.2591 11.2488 13.2238C8.71599 16.1885 7.20869 19.8921 6.9514 23.7829C6.69411 27.6738 7.70059 31.5436 9.82092 34.816C11.9449 38.0903 15.0707 40.5901 18.7318 41.9424C22.393 43.2947 26.3932 43.4269 30.1357 42.3194C33.8781 41.2118 37.1622 38.9239 39.4978 35.797C41.8334 32.6701 43.0953 28.8718 43.0953 24.9689V23.2262C43.0953 22.9736 43.1957 22.7314 43.3743 22.5528C43.5529 22.3742 43.7951 22.2738 44.0477 22.2738C44.3002 22.2738 44.5425 22.3742 44.7211 22.5528C44.8997 22.7314 45 22.9736 45 23.2262V24.9689C44.9811 29.2784 43.5786 33.4678 40.9991 36.92C38.4196 40.3721 34.7995 42.9046 30.6722 44.1441C28.855 44.6869 26.969 44.9644 25.0725 44.9679Z" fill="#C29F5B"/>
<path d="M25.0013 29.759C24.7498 29.7592 24.5084 29.6599 24.3299 29.4828L18.6159 23.7688C18.4372 23.5901 18.3368 23.3478 18.3368 23.0951C18.3368 22.8423 18.4372 22.6 18.6159 22.4213C18.7946 22.2426 19.037 22.1422 19.2897 22.1422C19.5424 22.1422 19.7847 22.2426 19.9634 22.4213L25.0013 27.4591L43.3717 9.06961C43.4602 8.98113 43.5652 8.91095 43.6808 8.86306C43.7965 8.81517 43.9204 8.79053 44.0455 8.79053C44.1706 8.79053 44.2945 8.81517 44.4101 8.86306C44.5257 8.91095 44.6308 8.98113 44.7193 9.06961C44.8077 9.1581 44.8779 9.26314 44.9258 9.37874C44.9737 9.49435 44.9983 9.61826 44.9983 9.74339C44.9983 9.86852 44.9737 9.99242 44.9258 10.108C44.8779 10.2236 44.8077 10.3287 44.7193 10.4172L25.6727 29.4638C25.5837 29.552 25.4781 29.6219 25.3621 29.6693C25.2461 29.7166 25.1218 29.7407 24.9965 29.7399L25.0013 29.759Z" fill="#C29F5B"/>
</svg>
