<svg width="60" height="42" viewBox="0 0 60 42" fill="none" xmlns="http://www.w3.org/2000/svg">
<path d="M15.6624 32.0984C15.9719 32.2606 16.2786 32.343 16.5738 32.3428C17.0022 32.3428 17.384 32.1698 17.649 31.8555C17.8619 31.6026 18.0903 31.149 17.9654 30.4255L17.6161 28.3945L19.0969 26.9558C19.6119 26.4564 19.8027 25.8494 19.622 25.2907C19.4407 24.7318 18.9294 24.3523 18.2185 24.2496L16.1687 23.9527L15.2523 22.1029C14.9346 21.4612 14.4159 21.0931 13.8287 21.0931C13.2409 21.0931 12.7218 21.4614 12.4051 22.1029L11.4891 23.9529L9.43975 24.2496C8.72839 24.3523 8.21663 24.732 8.03537 25.2912C7.85411 25.8501 8.04545 26.4568 8.55998 26.9555L10.0412 28.3947L9.69244 30.4241C9.56701 31.1481 9.79453 31.6019 10.0078 31.8553C10.4546 32.3868 11.2355 32.4961 11.994 32.0984L13.8287 31.1375L15.6624 32.0984ZM11.6388 30.1681L12.0563 27.7383L10.2889 26.0211L12.7323 25.6672L13.8287 23.4529L14.9254 25.6674L17.3685 26.0211L15.6011 27.7385L16.019 30.1685L13.8287 29.0209L11.6388 30.1681Z" fill="#C29F5B"/>
<path d="M8.83639 19.2648L8.5416 17.4677L9.78347 16.2016C10.2545 15.7207 10.4225 15.1396 10.2449 14.6072C10.0686 14.0806 9.5949 13.7219 8.94533 13.6237L7.26495 13.3678L6.50556 11.7577C6.08946 10.8761 5.42432 10.7809 5.15748 10.7809C4.89015 10.7809 4.22454 10.8761 3.80986 11.7577L3.04998 13.3678L1.36957 13.6235C0.719101 13.7222 0.244881 14.081 0.0691054 14.6081C-0.108499 15.1407 0.0599721 15.7216 0.53142 16.2018L1.77287 17.4677L1.47808 19.2639C1.36361 19.9574 1.58383 20.3907 1.7889 20.6319C2.21779 21.1379 2.96074 21.2398 3.66426 20.8535L5.15701 20.0322L6.65016 20.8535C6.93946 21.0125 7.22876 21.0931 7.51029 21.0931C7.91177 21.0931 8.27198 20.9297 8.52421 20.6328C8.72881 20.392 8.94945 19.9592 8.83639 19.2648ZM6.53757 16.8332L6.86531 18.832L5.15701 17.8923L3.44958 18.8302L3.7769 16.8332L2.34365 15.3719L4.31979 15.0711L5.15748 13.2951L5.99515 15.0711L7.96989 15.373L6.53757 16.8332Z" fill="#C29F5B"/>
<path d="M50.5606 24.2496L48.5108 23.9529L47.5953 22.1034C47.2781 21.4614 46.759 21.0931 46.1712 21.0931C45.584 21.0931 45.0653 21.4612 44.7476 22.1027L43.8312 23.9527L41.7814 24.2496C41.0705 24.3523 40.5592 24.7318 40.3779 25.2907C40.1972 25.8494 40.388 26.4564 40.9026 26.9555L42.3838 28.3945L42.0346 30.4253C41.9096 31.149 42.138 31.6026 42.3509 31.8557C42.7985 32.3858 43.5786 32.4961 44.338 32.0984L46.1712 31.1375L48.0059 32.0984C48.3153 32.2606 48.622 32.3428 48.9173 32.3428C49.3458 32.3428 49.7275 32.1698 49.9921 31.8553C50.2054 31.6022 50.4329 31.1483 50.3075 30.4255L49.9587 28.3947L51.4395 26.956C51.9545 26.4568 52.1458 25.8501 51.9645 25.2912C51.7833 24.732 51.2715 24.3523 50.5606 24.2496ZM47.9437 27.7383L48.3611 30.1681L46.1712 29.0209L43.9809 30.1685L44.3989 27.7385L42.6314 26.0211L45.0745 25.6674L46.1712 23.4529L47.2676 25.6672L49.711 26.0211L47.9437 27.7383Z" fill="#C29F5B"/>
<path d="M59.931 14.6081C59.7552 14.081 59.281 13.7222 58.631 13.6237L56.9501 13.3678L56.1907 11.7589C55.7756 10.8761 55.11 10.7809 54.8427 10.7809C54.5758 10.7809 53.9107 10.8761 53.4946 11.758L52.7352 13.3678L51.0552 13.6235C50.4052 13.7219 49.9315 14.0806 49.7552 14.6072C49.5776 15.1396 49.7456 15.7207 50.2171 16.2018L51.4585 17.4677L51.1637 19.266C51.0507 19.9592 51.2713 20.392 51.4759 20.6331C51.9057 21.1375 52.6477 21.2388 53.35 20.8535L54.8431 20.0322L56.3363 20.8537C56.6256 21.0125 56.9149 21.0931 57.1964 21.0931C57.5988 21.0931 57.959 20.9294 58.2112 20.6319C58.4163 20.3907 58.6365 19.9574 58.522 19.2648L58.2272 17.4677L59.4682 16.2022C59.9402 15.7216 60.1086 15.1407 59.931 14.6081ZM56.2232 16.8332L56.551 18.8318L54.8431 17.8923L53.1348 18.8302L53.4625 16.8332L52.0293 15.3719L54.005 15.0711L54.8427 13.2951L55.6803 15.0711L57.6555 15.373L56.2232 16.8332Z" fill="#C29F5B"/>
<path d="M30 15.937C34.4017 15.937 37.9685 12.3693 37.9685 7.96757C37.9685 3.56656 34.4017 0 30 0C25.6001 0 22.0315 3.56656 22.0315 7.96757C22.0315 12.3693 25.6001 15.937 30 15.937ZM30 1.87494C33.3599 1.87494 36.0936 4.60819 36.0936 7.96757C36.0936 11.3282 33.3599 14.0621 30 14.0621C26.6401 14.0621 23.9064 11.3282 23.9064 7.96757C23.9064 4.60819 26.6401 1.87494 30 1.87494Z" fill="#C29F5B"/>
<path d="M35.2378 35.7551L37.7015 33.2414C38.3419 32.5891 38.5794 31.8262 38.3538 31.1483C38.1308 30.4805 37.5005 30.0211 36.6248 29.8879L33.2526 29.3756L31.7374 26.1613C31.1758 24.9716 30.3353 24.843 30.0003 24.843C29.6643 24.843 28.8234 24.9716 28.264 26.1618L26.748 29.3754L23.3753 29.8879C22.4991 30.0211 21.8683 30.4809 21.6459 31.1492C21.4197 31.8274 21.6578 32.59 22.2973 33.2407L24.7623 35.7553L24.1795 39.3139C24.0216 40.2713 24.3036 40.8436 24.5677 41.1552C25.1079 41.7919 26.0522 41.8995 26.9933 41.382L30.0003 39.7286L33.0063 41.382C33.4109 41.6047 33.8074 41.7177 34.1837 41.7175C34.6808 41.7175 35.1238 41.5179 35.4315 41.1552C35.696 40.8436 35.9785 40.2715 35.821 39.3152L35.2378 35.7551ZM33.9708 39.6189C33.9809 39.6803 33.9864 39.7339 33.9891 39.7796C33.9649 39.7684 33.9387 39.7549 33.9099 39.7391L30.0003 37.5891L26.0902 39.7389C26.0614 39.7547 26.0353 39.7679 26.0114 39.7794C26.0137 39.7334 26.0197 39.6798 26.0298 39.6183L26.7663 35.1209L23.6353 31.9274C23.578 31.8686 23.5355 31.8168 23.5052 31.774C23.546 31.7624 23.5964 31.7509 23.6573 31.7418L28.0178 31.0792L29.96 26.9606C29.9742 26.9308 29.9874 26.9041 30.0008 26.88C30.014 26.9043 30.0278 26.9313 30.0419 26.9615L31.9828 31.0789L36.3428 31.7418C36.4037 31.7509 36.4541 31.7624 36.4944 31.774C36.4637 31.8171 36.4211 31.869 36.363 31.9283L33.2338 35.1211L33.9708 39.6189Z" fill="#C29F5B"/>
<path d="M17.2334 21.8782C17.7369 20.9714 18.3237 20.1683 19.0008 19.473C20.4843 17.9491 22.4467 16.9057 24.8591 16.3465C24.1944 15.9371 23.576 15.4596 23.0281 14.9089C19.8064 15.9563 17.5996 17.8319 16.0995 20.1415C16.4282 20.4512 16.7134 20.8277 16.9327 21.271L17.2334 21.8782Z" fill="#C29F5B"/>
<path d="M15.5736 34.6107C15.2673 34.6107 15.0234 34.3686 15.0183 34.1594C15.0156 34.0578 15.0165 33.9611 15.0142 33.8605C14.9401 33.8268 14.8659 33.7977 14.7922 33.7593L13.8282 33.2542L13.132 33.619C13.1351 33.8167 13.1388 34.014 13.1439 34.2092C13.1768 35.4679 14.2873 36.4857 15.5736 36.4857H22.7433L22.7589 36.3895L21.0149 34.6107H15.5736Z" fill="#C29F5B"/>
<path d="M35.0357 16.4106C37.3881 16.9967 39.3202 18.0496 40.8056 19.5645C41.5151 20.2884 42.134 21.13 42.6646 22.0835L43.0674 21.2705C43.2546 20.8922 43.4922 20.5649 43.7608 20.2827C42.2457 17.9745 40.0448 16.0849 36.8763 14.9987C36.3229 15.5402 35.7036 16.0108 35.0357 16.4106Z" fill="#C29F5B"/>
<path d="M45.2083 33.7591C45.1378 33.7962 45.0641 33.8188 44.9928 33.8511C44.9913 33.9591 44.9932 34.0635 44.9909 34.1724C44.9868 34.3709 44.7424 34.6107 44.4448 34.6107H38.9848L37.2416 36.3893L37.2572 36.4857H44.4448C45.7292 36.4857 46.8406 35.4679 46.8654 34.2092C46.8691 34.0147 46.8713 33.8183 46.8727 33.6215L46.1719 33.2542L45.2083 33.7591Z" fill="#C29F5B"/>
</svg>
